<?xml version="1.0" standalone="no"?><!DOCTYPE svg PUBLIC "-//W3C//DTD SVG 1.1//EN" "http://www.w3.org/Graphics/SVG/1.1/DTD/svg11.dtd"><svg t="1558227782135" class="icon" style="" viewBox="0 0 1024 1024" version="1.1" xmlns="http://www.w3.org/2000/svg" p-id="3577" xmlns:xlink="http://www.w3.org/1999/xlink" width="32" height="32"><defs><style type="text/css"></style></defs><path d="M64 804.864 64 219.072l896 0 0 585.792L64 804.864zM917.312 763.136 917.312 763.136 917.312 763.136 917.312 763.136zM890.048 763.136l-209.92-240.192L512 646.016 344 523.008l-209.728 240.064L890.048 763.072zM106.688 731.52l207.616-237.568L106.688 290.24 106.688 731.52zM106.688 260.992 106.688 260.992 106.688 260.992 106.688 260.992zM136.512 260.992l375.424 326.272 375.424-326.272L136.512 260.992zM709.504 494.08l207.808 237.76 0-441.6L709.504 494.08z" p-id="3578" fill="#ffffff"></path></svg>