<?xml version="1.0" standalone="no"?><!DOCTYPE svg PUBLIC "-//W3C//DTD SVG 1.1//EN" "http://www.w3.org/Graphics/SVG/1.1/DTD/svg11.dtd"><svg t="1558227630469" class="icon" style="" viewBox="0 0 1024 1024" version="1.1" xmlns="http://www.w3.org/2000/svg" p-id="2401" xmlns:xlink="http://www.w3.org/1999/xlink" width="48" height="48"><defs><style type="text/css"></style></defs><path d="M506.189667 655.677307c3.924379 7.848759 11.773138 11.773138 19.621896 15.697517 19.621896 15.697517 39.243793 11.773138 47.092551 7.848759l39.243793-58.865689 0 0c7.848759-7.848759 15.697517-11.773138 23.546276-19.621896 7.848759-3.924379 15.697517-7.848759 27.470655-7.848759l0 0c7.848759-3.924379 19.621896 0 27.470655 0l3.924379 0c7.848759 3.924379 15.697517 7.848759 23.546276 15.697517L863.306134 722.390731l3.924379 0c7.848759 7.848759 11.773138 15.697517 15.697517 23.546276l0 0c3.924379 7.848759 7.848759 19.621896 7.848759 27.470655 0 11.773138 0 23.546276-3.924379 31.395034l0 0c-3.924379 11.773138-11.773138 19.621896-19.621896 27.470655-7.848759 7.848759-19.621896 15.697517-35.319413 23.546276l0 3.924379c-11.773138 7.848759-31.395034 15.697517-47.092551 19.621896-82.411965 27.470655-168.747285 23.546276-251.158227-3.924379-7.848759-3.924379-19.621896-7.848759-27.470655-11.773138l0-62.790068c15.697517 3.924379 31.395034 11.773138 47.092551 15.697517 70.638827 23.546276 145.20101 31.395034 211.915457 7.848759 15.697517-3.924379 27.470655-11.773138 35.319413-15.697517l3.924379-3.924379c7.848759-3.924379 15.697517-11.773138 23.546276-15.697517 0-3.924379 3.924379-3.924379 3.924379-7.848759l0 0 0 0c0 0 0 0 0-3.924379 0-3.924379 0-3.924379 0-3.924379l0 0c0-3.924379-3.924379-3.924379-3.924379-3.924379l0-3.924379L682.785711 651.752928l0 0c-3.924379 0-3.924379 0-7.848759 0l0 0-3.924379 0 0 0c-3.924379 0-3.924379 0-3.924379 0l0 0 0 0c-3.924379 0-3.924379 3.924379-3.924379 3.924379l0 0 0 0-47.092551 62.790068c0 3.924379-3.924379 7.848759-7.848759 7.848759 0 0-47.092551 31.395034-102.032838 3.924379L506.189667 655.677307zM298.198589 153.35983l113.805976 145.20101 0 3.924379c3.924379 7.848759 7.848759 15.697517 11.773138 23.546276 0 7.848759 3.924379 19.621896 0 27.470655 0 11.773138-3.924379 19.621896-7.848759 27.470655l0 3.924379c-7.848759 7.848759-11.773138 11.773138-19.621896 19.621896l-3.924379 0-54.94131 39.243793c-3.924379 7.848759-7.848759 27.470655 7.848759 47.092551 23.546276 35.319413 51.016931 70.638827 82.410941 98.108458l0 0 0 0c23.546276 23.546276 51.016931 47.092551 78.487585 66.714448l0 74.563206c-3.924379-3.924379-11.773138-7.848759-15.697517-11.773138-39.243793-27.470655-74.563206-54.94131-105.957217-86.335321l0 0c-31.395034-31.395034-62.790068-66.714448-86.335321-105.957217-47.092551-62.790068-7.848759-117.730355-7.848759-117.730355 0-3.924379 3.924379-3.924379 7.848759-7.848759l58.865689-43.168172 3.924379-3.924379c0 0 0 0 3.924379 0l0-3.924379c0 0 0 0 0-3.924379l0-3.924379c0-3.924379 0-3.924379 0-3.924379l0 0 0 0L251.107061 188.67822l0 0c-3.924379 0-3.924379 0-3.924379-3.924379l-3.924379 0c0 0 0 0-3.924379 0l-3.924379 0 0 0c-3.924379 0-3.924379 3.924379-7.848759 3.924379-3.924379 7.848759-11.773138 15.697517-15.697517 23.546276-7.848759 11.773138-15.697517 23.546276-19.621896 39.243793-23.546276 66.714448-15.697517 141.27663 7.848759 211.915457 23.546276 78.487585 74.563206 153.049768 137.352251 215.839837 51.016931 51.016931 105.957217 94.184079 168.747285 121.654734l0 62.790068c-78.487585-31.395034-149.125389-82.410941-211.915457-141.27663-66.714448-70.638827-121.654734-153.049768-153.049768-239.386112-27.470655-82.410941-31.395034-168.747285-3.924379-251.158227 7.848759-19.621896 15.697517-35.319413 23.546276-47.092551l0 0 0 0c7.848759-15.697517 15.697517-27.470655 23.546276-35.319413 7.848759-7.848759 15.697517-15.697517 27.470655-19.621896l3.924379 0c7.848759-3.924379 15.697517-3.924379 27.470655-3.924379 11.773138 0 19.621896 3.924379 27.470655 7.848759l3.924379 0L298.198589 153.35983zM298.198589 153.35983 298.198589 153.35983 298.198589 153.35983 298.198589 153.35983zM298.198589 153.35983 298.198589 153.35983 298.198589 153.35983 298.198589 153.35983z" p-id="2402" fill="#ffffff"></path></svg>